PathFileType	4	(X/Y/Z)	/Users/niels/Desktop/University/Third Semester/Perception and Action/Exam/Gymnastics Motion Tracking/Code for Gym Tracking/Analyzed Data/Webcam_Backflip/id8_4_baseline_Sports2D/id8_4_baseline_Sports2D_px_person00.trc
DataRate	CameraRate	NumFrames	NumMarkers	Units	OrigDataRate	OrigDataStartFrame	OrigNumFrames
29.81132075471698	29.81132075471698	8	22	m	29.81132075471698	99	159
Frame#	Time	Hip			RHip			RKnee			RAnkle			RBigToe			RSmallToe			RHeel			LHip			LKnee			LAnkle			LBigToe			LSmallToe			LHeel			Neck			Head			Nose			RShoulder			RElbow			RWrist			LShoulder			LElbow			LWrist		
		X1	Y1	Z1	X2	Y2	Z2	X3	Y3	Z3	X4	Y4	Z4	X5	Y5	Z5	X6	Y6	Z6	X7	Y7	Z7	X8	Y8	Z8	X9	Y9	Z9	X10	Y10	Z10	X11	Y11	Z11	X12	Y12	Z12	X13	Y13	Z13	X14	Y14	Z14	X15	Y15	Z15	X16	Y16	Z16	X17	Y17	Z17	X18	Y18	Z18	X19	Y19	Z19	X20	Y20	Z20	X21	Y21	Z21	X22	Y22	Z22
99	3.320886075949367	0.9585080959821596	-0.5710734935912101	0.0	0.9624965731369465	-0.5679900839015227	0.0	0.9850256990844022	-0.6650148627603638	0.0	0.9822000153701128	-0.7703193937912195	0.0	1.0222919511699446	-0.7826094808952941	0.0	1.0148639774436297	-0.7881864852889535	0.0	0.9760478538821233	-0.7824592407771672	0.0	0.9524721244730059	-0.5659063021644003	0.0	0.9531992621381815	-0.6655634124460882	0.0	0.9310991656151218	-0.7648901602313943	0.0	0.9687784779031481	-0.7809731111472029	0.0	0.9589906386211291	-0.7781293440118887	0.0	0.922851826082086	-0.778650705826796	0.0	0.9685735509157957	-0.43422384415968523	0.0	0.9770346604305193	-0.3712908015080792	0.0	0.9971603873213307	-0.402582788778638	0.0	0.9631585436474989	-0.4543225285327421	0.0	0.9554193466766947	-0.5207407967440455	0.0	0.9808195542747856	-0.5756420025958381	0.0	0.9622199373804047	-0.45288806261934494	0.0	0.973293831304447	-0.5110480844862433	0.0	1.0266834359308254	-0.5287416987229783	0.0
100	3.354430379746835	0.9625663320762207	-0.5752306815112613	0.0	0.9660238342023588	-0.5724902600387388	0.0	0.9864357164576625	-0.6696785923092738	0.0	0.9835825862452359	-0.7746183605411677	0.0	1.0224105651316147	-0.7867021374616973	0.0	1.0152357328800559	-0.7922816260892146	0.0	0.977311746999862	-0.7862053255210348	0.0	0.9567338589250507	-0.5703404972041604	0.0	0.958147570515325	-0.6704015699029456	0.0	0.9316819151471569	-0.7673155573957674	0.0	0.9672227343783505	-0.7833865669160702	0.0	0.9578203792374795	-0.7807198172300119	0.0	0.92299481727649	-0.7806137795157951	0.0	0.9712049405876928	-0.43800186193426055	0.0	0.978695446317424	-0.37616785977907985	0.0	0.9997290743774064	-0.40670120246857666	0.0	0.9659694818810723	-0.45885401332311754	0.0	0.9595572144843645	-0.5253007177379858	0.0	0.9819733227265223	-0.5803421435995327	0.0	0.9657860302253659	-0.4572177089233884	0.0	0.976820985087854	-0.5169675572392061	0.0	1.0266731301359295	-0.5381294634761753	0.0
101	3.3879746835443036	0.9662099987276667	-0.580416097743337	0.0	0.9690725999930266	-0.5781656965551554	0.0	0.9877347320528941	-0.6754521651375354	0.0	0.9835275504677243	-0.7798355501782892	0.0	1.0204231739719636	-0.7918029425573851	0.0	1.013475038377156	-0.7972190887513811	0.0	0.9768631172287242	-0.7909766398323738	0.0	0.960963823247045	-0.5759359296478658	0.0	0.9639524595495006	-0.6761470900204333	0.0	0.9326309504191059	-0.7700298768848816	0.0	0.9655575903424324	-0.7867071614739501	0.0	0.9566853109327077	-0.7841715569162154	0.0	0.923252931054764	-0.7826386601640156	0.0	0.9736102549746324	-0.4431390669057501	0.0	0.9802426687129939	-0.3822202961196319	0.0	1.0020165355727666	-0.41194743609946677	0.0	0.9684516800484692	-0.4646675044349716	0.0	0.9635177309044834	-0.5311051608679528	0.0	0.9836861696568192	-0.5857455855441442	0.0	0.9692125346203899	-0.4628760466215131	0.0	0.980090427103027	-0.5241628821249185	0.0	1.025451454988159	-0.5498185861806705	0.0
102	3.421518987341772	0.9694413453590426	-0.586106053039452	0.0	0.971586729542413	-0.5843969048994059	0.0	0.9891088864065669	-0.6816297313414317	0.0	0.9827872005942172	-0.7854256754368302	0.0	1.0171906048577777	-0.7973003563836242	0.0	1.0103047814155743	-0.8024315613266867	0.0	0.9755283901378947	-0.7962542953660804	0.0	0.9652528164408467	-0.5821428058257283	0.0	0.9709902276293272	-0.6819650791208992	0.0	0.9342603781870926	-0.7725030907769775	0.0	0.9641449415155525	-0.7907066419353834	0.0	0.9560352503432091	-0.7881568344024383	0.0	0.9239758050783586	-0.7841571496431915	0.0	0.9757911850494146	-0.4490830385004884	0.0	0.9816986961755462	-0.3888016092489992	0.0	1.0039724378026726	-0.4177304820866819	0.0	0.9705312754079881	-0.4710500333863237	0.0	0.966855614924732	-0.5375086234870631	0.0	0.985790403195115	-0.5916110090138427	0.0	0.9722653201256823	-0.4692271379963772	0.0	0.9825149003455226	-0.5317642911919332	0.0	1.0225119241954705	-0.5626678076057011	0.0
103	3.4550632911392403	0.9723449905083057	-0.5917825293366678	0.0	0.973563389419887	-0.5905713486628354	0.0	0.9906563174607974	-0.6875258553311314	0.0	0.9819070355228635	-0.7907584210033108	0.0	1.013438374522892	-0.8025160345853262	0.0	1.0062870867571836	-0.807272207114958	0.0	0.973947682487977	-0.8013341216421886	0.0	0.9696663979699817	-0.5883710607074216	0.0	0.9795180867545497	-0.687008312604446	0.0	0.9367694446635552	-0.7741795034978399	0.0	0.9632968766527716	-0.7948999419551327	0.0	0.9562384446669014	-0.7921455516838786	0.0	0.9253890430687268	-0.7845994874865755	0.0	0.9777279069593604	-0.4551306986700241	0.0	0.9830380870773292	-0.39523432647737694	0.0	1.0056036859949222	-0.423442623270095	0.0	0.9721501480025524	-0.4772381598958254	0.0	0.9692787831097511	-0.5437863882982884	0.0	0.9878875557800104	-0.5975040040912012	0.0	0.9747267126768561	-0.47548343459567016	0.0	0.9835071032895912	-0.5388900929884787	0.0	1.0174258940468557	-0.5752505664641777	0.0
104	3.488607594936709	0.9750015849837086	-0.5969718401740378	0.0	0.9750747725602749	-0.5961347471195375	0.0	0.9923687975080716	-0.6925632347235007	0.0	0.9811852214623789	-0.79516283522542	0.0	1.0094784786639872	-0.8068424256841212	0.0	1.001742465601746	-0.8111555861952128	0.0	0.9725736681421603	-0.8054960140670914	0.0	0.9740854756037429	-0.5940264016457837	0.0	0.9894256713856246	-0.6905477908300409	0.0	0.9402076249588183	-0.7745824707205151	0.0	0.963233118618192	-0.7985788594228865	0.0	0.9573824720645637	-0.7954769010979195	0.0	0.9275987712374794	-0.7835648765621823	0.0	0.9794044696459682	-0.4605688355332616	0.0	0.9843118518904879	-0.4008134112838027	0.0	1.0069505644017398	-0.4285214042629276	0.0	0.9733666483191962	-0.48256876990405917	0.0	0.9707519555568455	-0.5491998027056401	0.0	0.9894565334065709	-0.6028087143655617	0.0	0.9764385230332714	-0.4808759418368881	0.0	0.9827356762379932	-0.54475513434111	0.0	1.010168387867933	-0.586124725374836	0.0
105	3.522151898734177	0.9774020529572425	-0.6011793874493689	0.0	0.9762177524155838	-0.6005589893919339	0.0	0.9942308651623635	-0.6962687919512073	0.0	0.9807083282818699	-0.7980049628962659	0.0	1.0053377002659925	-0.8098003003188606	0.0	0.9969297317110365	-0.8136253969292796	0.0	0.9716456218001666	-0.8081512756317796	0.0	0.9781895060250916	-0.5985289856339099	0.0	1.0000150391538676	-0.6921493287241739	0.0	0.9444446929412008	-0.7734864007398521	0.0	0.9641023242051019	-0.8009933884593903	0.0	0.9593062447965632	-0.7975098895954141	0.0	0.9305644527292557	-0.7810323095993665	0.0	0.9808223611776629	-0.46477112459647246	0.0	0.9856192098251175	-0.4049140745461241	0.0	1.0080415811752954	-0.43249625793496893	0.0	0.9743192055872264	-0.48653790408545194	0.0	0.971433824808697	-0.5531443832550234	0.0	0.9901355113846099	-0.6069069361222739	0.0	0.9774319153533118	-0.4848110559114066	0.0	0.9803585408584599	-0.5488025644894934	0.0	1.0013845927188092	-0.5942944888561479	0.0
106	3.5556962025316454	0.9795265767350959	-0.6039313306519762	0.0	0.9771348127354108	-0.6034247675101544	0.0	0.9962487797458526	-0.6982756141716855	0.0	0.9804624884860601	-0.798842437759339	0.0	1.0013671039437335	-0.8110315599982015	0.0	0.9923974454328353	-0.8143866607885432	0.0	0.9712080242179085	-0.8089769040616539	0.0	0.9816808296883336	-0.6014606815604417	0.0	1.0100694647918589	-0.6918193406457677	0.0	0.949187606343943	-0.77104754100031	0.0	0.9661275861100165	-0.8016385834667709	0.0	0.9619070078075587	-0.7978342997619706	0.0	0.9341211217027271	-0.777448312982734	0.0	0.9819809586230684	-0.46727206593371146	0.0	0.9869823733262326	-0.407126456735337	0.0	1.0088884557061777	-0.4349819231133724	0.0	0.9751224474889998	-0.4888071206455715	0.0	0.9715151513144734	-0.5552303649212227	0.0	0.9898994321762965	-0.609335330107435	0.0	0.9779311454322597	-0.4869648004786637	0.0	0.9770014001886796	-0.5508106229034374	0.0	0.992131182218214	-0.5995182356270601	0.0
